<svg width="1280" height="640" viewBox="0 0 1280 640" fill="none" xmlns="http://www.w3.org/2000/svg">
  <rect width="1280" height="640" fill="#ffffff"/>
  <rect x="48" y="48" width="1184" height="544" rx="28" fill="#F7F8FA" stroke="#E8EAED"/>
  <rect x="84" y="84" width="292" height="24" rx="12" fill="#ffffff" stroke="#E8EAED"/>
  <text x="106" y="100" fill="#5F6368" font-family="Inter, Arial, sans-serif" font-size="14" font-weight="600">OpenHanako Plugin</text>
  <text x="84" y="188" fill="#111111" font-family="Inter, Arial, sans-serif" font-size="56" font-weight="700">Hanako Web Access</text>
  <text x="84" y="252" fill="#111111" font-family="Inter, Arial, sans-serif" font-size="32" font-weight="500">Connect your daily Chrome to OpenHanako</text>
  <text x="84" y="310" fill="#5F6368" font-family="Inter, Arial, sans-serif" font-size="22">Reuse login state. Operate background tabs. Read dynamic pages.</text>
  <text x="84" y="348" fill="#5F6368" font-family="Inter, Arial, sans-serif" font-size="22">Add lightweight site knowledge without patching Hanako core.</text>

  <rect x="84" y="408" width="212" height="56" rx="14" fill="#111111"/>
  <text x="122" y="442" fill="#ffffff" font-family="Inter, Arial, sans-serif" font-size="22" font-weight="600">Full-access plugin</text>

  <rect x="320" y="408" width="174" height="56" rx="14" fill="#ffffff" stroke="#E8EAED"/>
  <text x="351" y="442" fill="#111111" font-family="Inter, Arial, sans-serif" font-size="22" font-weight="600">CDP + Skill</text>

  <rect x="748" y="132" width="394" height="356" rx="24" fill="#ffffff" stroke="#E8EAED"/>
  <rect x="780" y="168" width="330" height="52" rx="14" fill="#F7F8FA" stroke="#E8EAED"/>
  <text x="808" y="200" fill="#111111" font-family="Inter, Arial, sans-serif" font-size="22" font-weight="600">Open → Read → Act → Learn</text>

  <rect x="780" y="246" width="150" height="112" rx="18" fill="#ffffff" stroke="#E8EAED"/>
  <text x="806" y="292" fill="#111111" font-family="Inter, Arial, sans-serif" font-size="24" font-weight="700">Chrome</text>
  <text x="806" y="324" fill="#5F6368" font-family="Inter, Arial, sans-serif" font-size="16">user session</text>

  <rect x="960" y="246" width="150" height="112" rx="18" fill="#ffffff" stroke="#E8EAED"/>
  <text x="990" y="292" fill="#111111" font-family="Inter, Arial, sans-serif" font-size="24" font-weight="700">Hanako</text>
  <text x="990" y="324" fill="#5F6368" font-family="Inter, Arial, sans-serif" font-size="16">plugin tools</text>

  <rect x="780" y="382" width="330" height="74" rx="18" fill="#F7F8FA" stroke="#E8EAED"/>
  <text x="810" y="425" fill="#111111" font-family="Inter, Arial, sans-serif" font-size="24" font-weight="600">site-patterns/example.com.md</text>
</svg>
